<svg width="21" height="21" viewBox="0 0 21 21" fill="none" xmlns="http://www.w3.org/2000/svg">
<path d="M8.63354 11.0334C8.99145 11.5119 9.44808 11.9078 9.97245 12.1943C10.4968 12.4808 11.0767 12.6511 11.6727 12.6938C12.2687 12.7365 12.8669 12.6505 13.4267 12.4417C13.9866 12.2328 14.495 11.906 14.9174 11.4834L17.4176 8.98323C18.1767 8.19732 18.5967 7.14472 18.5872 6.05214C18.5777 4.95956 18.1395 3.91442 17.3669 3.14182C16.5943 2.36922 15.5491 1.93098 14.4565 1.92148C13.364 1.91199 12.3114 2.332 11.5255 3.09106L10.092 4.51618" stroke="#3D3D3D" stroke-width="1.66678" stroke-linecap="round" stroke-linejoin="round"/>
<path d="M11.9675 9.36662C11.6096 8.88814 11.153 8.49223 10.6286 8.20574C10.1042 7.91925 9.52436 7.74889 8.92835 7.7062C8.33235 7.66352 7.73414 7.74951 7.17429 7.95835C6.61444 8.16719 6.10606 8.49399 5.68362 8.91658L3.1834 11.4168C2.42435 12.2027 2.00434 13.2553 2.01383 14.3479C2.02332 15.4405 2.46157 16.4856 3.23416 17.2582C4.00676 18.0308 5.05191 18.469 6.14449 18.4785C7.23707 18.488 8.28967 18.068 9.07557 17.309L10.5007 15.8838" stroke="#3D3D3D" stroke-width="1.66678" stroke-linecap="round" stroke-linejoin="round"/>
</svg>
